<svg width="491" height="120" viewBox="0 0 491 120" fill="none" xmlns="http://www.w3.org/2000/svg">
<g clip-path="url(#clip0_3_35)">
<path d="M0 118.81V73.75H34.37V79.51H6.37V92.79H31.26V98.91H6.37V118.81H0Z" fill="white"/>
<path d="M40.68 118.81V73.75H47.05V118.81H40.68Z" fill="white"/>
<path d="M57.86 118.81V73.75H81.57C86.79 73.75 90.76 74.8 93.48 76.89C96.2 78.98 97.56 82.04 97.56 86.06C97.56 88.94 96.91 91.3 95.62 93.13C94.33 94.96 92.39 96.28 89.82 97.09C92.09 97.44 93.77 98.27 94.83 99.59C95.9 100.91 96.53 102.93 96.73 105.65L97.28 112.93C97.42 114.62 97.62 115.86 97.86 116.65C98.1 117.44 98.46 118.16 98.93 118.81H91.5C91.28 118.3 91.1 117.69 90.98 116.98C90.86 116.27 90.76 115.31 90.68 114.12L90.13 107.45C89.87 104.34 89.1 102.23 87.83 101.13C86.56 100.02 84.31 99.47 81.08 99.47H64.17V118.82H57.86V118.81ZM78.52 79.2H64.17V93.92H79.07C83.58 93.92 86.73 93.36 88.52 92.24C90.31 91.12 91.2 89.22 91.2 86.54C91.2 83.86 90.32 81.91 88.55 80.83C86.78 79.74 83.44 79.2 78.52 79.2Z" fill="white"/>
<path d="M105.06 103.58H111.79C111.91 107.13 113.14 109.77 115.46 111.49C117.79 113.21 121.27 114.06 125.93 114.06C129.91 114.06 132.99 113.4 135.16 112.08C137.33 110.76 138.42 108.88 138.42 106.44C138.42 104.67 137.83 103.3 136.64 102.31C135.45 101.32 133.47 100.59 130.68 100.1L119.53 98.09C115 97.3 111.69 95.94 109.61 94.02C107.53 92.1 106.49 89.49 106.49 86.17C106.49 81.82 108.14 78.47 111.43 76.1C114.72 73.73 119.41 72.55 125.51 72.55C131.26 72.55 135.68 73.78 138.76 76.25C141.85 78.72 143.42 82.25 143.48 86.84H137.11C136.89 83.98 135.79 81.86 133.83 80.49C131.87 79.12 128.93 78.43 125.01 78.43C121.09 78.43 118.27 79.04 116.25 80.27C114.23 81.5 113.22 83.27 113.22 85.59C113.22 87.28 113.79 88.57 114.94 89.47C116.09 90.37 118.17 91.12 121.2 91.71L131.1 93.66C136.3 94.66 139.93 96.07 141.99 97.91C144.05 99.75 145.08 102.4 145.08 105.88C145.08 110.35 143.38 113.82 139.98 116.29C136.58 118.76 131.77 119.99 125.55 119.99C118.85 119.99 113.77 118.61 110.33 115.86C106.89 113.11 105.12 109.01 105.04 103.57L105.06 103.58Z" fill="white"/>
<path d="M171.33 79.63V118.81H164.96V79.63H147.87V73.75H188.49V79.63H171.33Z" fill="white"/>
<path d="M212.59 103.97H217.13V104.21C217.13 107.64 218.43 110.4 221.03 112.47C223.63 114.54 227.09 115.58 231.42 115.58C235.75 115.58 239.11 114.74 241.63 113.07C244.15 111.4 245.41 109.14 245.41 106.32C245.41 104.17 244.68 102.54 243.23 101.43C241.78 100.32 238.76 99.35 234.17 98.52L224.57 96.84C220.99 96.23 218.32 94.99 216.56 93.12C214.79 91.25 213.91 88.74 213.91 85.59C213.91 81.63 215.45 78.47 218.54 76.1C221.63 73.73 225.8 72.55 231.06 72.55C236.32 72.55 240.78 73.77 243.9 76.22C247.02 78.67 248.65 82.07 248.79 86.41H244.28C244 83.24 242.74 80.83 240.52 79.17C238.3 77.51 235.18 76.69 231.18 76.69C227.18 76.69 224.19 77.47 221.92 79.02C219.65 80.57 218.51 82.68 218.51 85.34C218.51 87.45 219.3 89.07 220.89 90.2C222.48 91.33 225.43 92.27 229.76 93.02L238.32 94.51C242.42 95.24 245.42 96.53 247.32 98.38C249.22 100.23 250.17 102.81 250.17 106.12C250.17 110.47 248.56 113.86 245.34 116.31C242.12 118.76 237.64 119.98 231.89 119.98C226.14 119.98 221.19 118.61 217.75 115.87C214.31 113.13 212.6 109.38 212.6 104.63V103.96L212.59 103.97Z" fill="white"/>
<path d="M271.36 118.81V77.89H253.96V73.75H293.27V77.89H275.87V118.81H271.36Z" fill="white"/>
<path d="M343.88 96.29C343.88 103.64 341.77 109.43 337.54 113.66C333.31 117.89 327.53 120 320.17 120C312.81 120 307.01 117.89 302.8 113.66C298.6 109.44 296.49 103.65 296.49 96.29C296.49 88.93 298.59 83.12 302.8 78.89C307 74.67 312.79 72.55 320.17 72.55C327.55 72.55 333.31 74.66 337.54 78.89C341.77 83.12 343.88 88.91 343.88 96.29ZM320.17 115.64C326.12 115.64 330.79 113.92 334.17 110.49C337.55 107.06 339.24 102.32 339.24 96.29C339.24 90.26 337.55 85.5 334.17 82.08C330.79 78.66 326.12 76.95 320.17 76.95C314.22 76.95 309.52 78.66 306.14 82.08C302.76 85.5 301.07 90.24 301.07 96.29C301.07 102.34 302.76 107.06 306.14 110.49C309.52 113.92 314.2 115.64 320.17 115.64Z" fill="white"/>
<path d="M352.29 118.81V73.75H370.63C376.26 73.75 380.43 74.84 383.15 77.03C385.87 79.21 387.23 82.56 387.23 87.07C387.23 91.58 385.87 94.9 383.15 97.08C380.43 99.26 376.25 100.36 370.63 100.36H356.8V118.82H352.29V118.81ZM356.8 95.96H369.84C374.61 95.96 377.91 95.29 379.74 93.95C381.57 92.61 382.48 90.29 382.48 87C382.48 83.71 381.56 81.33 379.72 79.98C377.88 78.63 374.59 77.95 369.83 77.95H356.79V95.96H356.8Z" fill="white"/>
<path d="M424.78 69.48C435.21 59.05 445.65 48.61 456.08 38.18H490.89C481.53 49.41 472.18 60.64 462.82 71.87C472.18 83.1 481.53 94.33 490.89 105.56H456.08C445.65 95.13 435.21 84.69 424.78 74.26C423.46 72.94 423.46 70.81 424.78 69.5V69.48Z" fill="white"/>
<path d="M416.65 66.11C406.22 55.68 395.78 45.24 385.35 34.81V0C396.58 9.36 407.81 18.71 419.04 28.07C430.27 18.71 441.5 9.36 452.73 0V34.81C442.3 45.24 431.86 55.68 421.43 66.11C420.11 67.43 417.98 67.43 416.67 66.11H416.65Z" fill="white"/>
</g>
<defs>
<clipPath id="clip0_3_35">
<rect width="490.89" height="120" fill="white"/>
</clipPath>
</defs>
</svg>
