<svg width="30" height="30" viewBox="0 0 30 30" fill="none" xmlns="http://www.w3.org/2000/svg">
<g clip-path="url(#clip0_2_17)">
<path d="M11.2095 19.749C14.175 16.7835 17.1405 13.818 20.1075 10.851H30.0015C27.342 14.043 24.6825 17.2335 22.023 20.4255C24.6825 23.6175 27.342 26.808 30.0015 30H20.1075C17.142 27.0345 14.1765 24.069 11.2095 21.102C10.836 20.7285 10.836 20.1225 11.2095 19.7475V19.749Z" fill="white"/>
<path d="M8.898 18.7905C5.931 15.825 2.9655 12.8595 0 9.894V0C3.192 2.6595 6.3825 5.319 9.5745 7.9785C12.7665 5.319 15.957 2.6595 19.149 0V9.894C16.1835 12.8595 13.218 15.825 10.251 18.792C9.8775 19.1655 9.2715 19.1655 8.8965 18.792L8.898 18.7905Z" fill="white"/>
</g>
<defs>
<clipPath id="clip0_2_17">
<rect width="30" height="30" fill="white"/>
</clipPath>
</defs>
</svg>
