<svg width="20" height="20" viewBox="0 0 20 20" fill="none" xmlns="http://www.w3.org/2000/svg">
<g clip-path="url(#clip0_19_13)">
<path d="M11.6825 4.00832C12.425 3.31082 13.5858 3.13999 14.4942 3.59582L17.3033 5.00082H20V3.33416H17.6967L15.24 2.10499C13.72 1.34416 11.7792 1.62666 10.5392 2.79499L10.0242 3.27999L9.44083 2.74832C8.675 2.05082 7.68333 1.66666 6.61583 1.66666C5.97333 1.66666 5.3325 1.81832 4.76 2.10416L2.3025 3.33332H0V4.99999H2.69667L5.50667 3.59499C6.35833 3.16666 7.555 3.28249 8.31833 3.97999L8.8075 4.42582L6.6025 6.50249C5.70833 7.39582 5.56583 8.80832 6.27083 9.78416C6.70417 10.3867 7.43667 10.8333 8.3075 10.8333C8.96833 10.8333 9.6025 10.5733 10.0608 10.1142L10.8992 9.31166L16.185 13.2758L10 17.9008L2.7775 12.5H0V14.1667H2.2225L10 19.9825L17.7775 14.1667H20V12.5H17.9275L12.1192 8.14416L13.5258 6.79749L12.3733 5.59332L8.89583 8.92249C8.7225 9.09582 8.48667 9.18499 8.23917 9.16416C7.99083 9.14416 7.7725 9.01832 7.62333 8.80999C7.395 8.49332 7.465 7.99749 7.76333 7.69832L11.6825 4.00832Z" fill="white"/>
</g>
<defs>
<clipPath id="clip0_19_13">
<rect width="20" height="20" fill="white"/>
</clipPath>
</defs>
</svg>
