<svg width="20" height="20" viewBox="0 0 20 20" fill="none" xmlns="http://www.w3.org/2000/svg">
<g clip-path="url(#clip0_19_10)">
<path d="M16.6242 2.20334L9.99999 0.00750732L3.37582 2.20334C2.87876 2.36669 2.44593 2.68277 2.13903 3.10654C1.83213 3.5303 1.66682 4.04012 1.66666 4.56334V10C1.66666 16.27 9.33332 19.7325 9.66166 19.8767L9.95666 20.0075L10.2633 19.9058C10.5925 19.7958 18.3333 17.1475 18.3333 10V4.56334C18.333 4.04015 18.1677 3.53039 17.8608 3.10665C17.5539 2.68291 17.1212 2.3668 16.6242 2.20334ZM16.6667 10C16.6667 15.2192 11.3758 17.68 10.0392 18.2175C8.69999 17.5483 3.33332 14.5783 3.33332 10V4.56334C3.3334 4.3889 3.38854 4.21893 3.49089 4.07768C3.59325 3.93642 3.73758 3.83108 3.90332 3.77667L9.99999 1.75501L16.0967 3.77667C16.2625 3.83085 16.407 3.93614 16.5094 4.07745C16.6118 4.21875 16.6668 4.38884 16.6667 4.56334V10Z" fill="white"/>
</g>
<defs>
<clipPath id="clip0_19_10">
<rect width="20" height="20" fill="white"/>
</clipPath>
</defs>
</svg>
