<svg width="20" height="20" viewBox="0 0 20 20" fill="none" xmlns="http://www.w3.org/2000/svg">
<g clip-path="url(#clip0_16_2)">
<path d="M4.16666 15.8333H7.845L19.2142 4.46418C19.7012 3.97599 19.9747 3.31457 19.9747 2.62501C19.9747 1.93545 19.7012 1.27403 19.2142 0.785843C18.7189 0.312421 18.0601 0.0482178 17.375 0.0482178C16.6899 0.0482178 16.0311 0.312421 15.5358 0.785843L4.16666 12.155V15.8333ZM5.83333 12.845L16.7142 1.96418C16.8922 1.79414 17.1288 1.69925 17.375 1.69925C17.6212 1.69925 17.8578 1.79414 18.0358 1.96418C18.2108 2.13961 18.309 2.37725 18.309 2.62501C18.309 2.87277 18.2108 3.11041 18.0358 3.28584L7.155 14.1667H5.83333V12.845Z" fill="white"/>
<path d="M19.6842 6.35167L18.3333 7.7025V13.3333H13.3333V18.3333H1.66667V2.5C1.66667 2.27899 1.75446 2.06702 1.91074 1.91074C2.06702 1.75446 2.27899 1.66667 2.5 1.66667H12.2983L13.6492 0.315833C13.7708 0.20302 13.8991 0.0975551 14.0333 0L2.5 0C1.83696 0 1.20107 0.263392 0.732233 0.732233C0.263392 1.20107 0 1.83696 0 2.5L0 20H15.345L20 15.345V5.9675C19.9022 6.10155 19.7968 6.22982 19.6842 6.35167ZM15 17.9883V15H17.9883L15 17.9883Z" fill="white"/>
</g>
<defs>
<clipPath id="clip0_16_2">
<rect width="20" height="20" fill="white"/>
</clipPath>
</defs>
</svg>
