<svg width="20" height="20" viewBox="0 0 20 20" fill="none" xmlns="http://www.w3.org/2000/svg">
<path d="M19.8508 9.3175C19.1192 7.7175 16.25 2.5 10 2.5C3.75 2.5 0.880833 7.7175 0.149166 9.3175C0.0509481 9.53192 0.000106812 9.76499 0.000106812 10.0008C0.000106812 10.2367 0.0509481 10.4697 0.149166 10.6842C0.880833 12.2825 3.75 17.5 10 17.5C16.25 17.5 19.1192 12.2825 19.8508 10.6825C19.9489 10.4683 19.9996 10.2355 19.9996 10C19.9996 9.76446 19.9489 9.53168 19.8508 9.3175ZM10 15.8333C4.74417 15.8333 2.29167 11.3617 1.66667 10.0092C2.29167 8.63833 4.74417 4.16667 10 4.16667C15.2433 4.16667 17.6967 8.61917 18.3333 10C17.6967 11.3808 15.2433 15.8333 10 15.8333Z" fill="white"/>
<path d="M10 5.83334C9.17591 5.83334 8.37033 6.07771 7.68512 6.53555C6.99992 6.99339 6.46586 7.64414 6.1505 8.4055C5.83513 9.16686 5.75262 10.0046 5.91339 10.8129C6.07416 11.6211 6.471 12.3636 7.05372 12.9463C7.63644 13.529 8.37887 13.9258 9.18712 14.0866C9.99537 14.2474 10.8332 14.1649 11.5945 13.8495C12.3559 13.5341 13.0066 13.0001 13.4645 12.3149C13.9223 11.6297 14.1667 10.8241 14.1667 10C14.1653 8.89535 13.7259 7.83631 12.9448 7.05519C12.1637 6.27408 11.1047 5.83467 10 5.83334ZM10 12.5C9.50554 12.5 9.02219 12.3534 8.61107 12.0787C8.19995 11.804 7.87952 11.4135 7.6903 10.9567C7.50108 10.4999 7.45157 9.99724 7.54803 9.51228C7.6445 9.02733 7.8826 8.58187 8.23223 8.23224C8.58186 7.88261 9.02732 7.64451 9.51227 7.54805C9.99722 7.45158 10.4999 7.50109 10.9567 7.69031C11.4135 7.87953 11.804 8.19996 12.0787 8.61108C12.3534 9.02221 12.5 9.50556 12.5 10C12.5 10.6631 12.2366 11.2989 11.7678 11.7678C11.2989 12.2366 10.663 12.5 10 12.5Z" fill="white"/>
</svg>
